<svg xmlns="http://www.w3.org/2000/svg" viewBox="0 19.950000762939453 71 32.54999923706055" data-asc="1.05" width="80" height="80"><defs/><g fill="#currentColor"><g transform="translate(0, 0)"><path d="M21.25 42.70Q21.25 41.05 21.40 39.70L21.30 39.55Q19.90 39.75 18.25 39.83Q16.60 39.90 15.20 39.85L15.20 33.35L28.25 33.30L28.25 50.30Q25.95 51.35 23.03 51.92Q20.10 52.50 15.60 52.50Q9.60 52.50 6.20 50.88Q2.80 49.25 1.40 45.63Q0 42 0 35.95Q0 31.05 1.13 27.90Q2.25 24.75 4.43 23.02Q6.60 21.30 9.75 20.63Q12.90 19.95 16.95 19.95Q19.35 19.95 21.78 20.15Q24.20 20.35 26.60 20.90L26.60 27.50L26.45 27.60Q24.35 27.10 22.28 26.90Q20.20 26.70 18.10 26.70Q15.05 26.70 12.78 27.32Q10.50 27.95 9.25 29.90Q8 31.85 8 35.95Q8 40 8.68 42.13Q9.35 44.25 11.23 45.02Q13.10 45.80 16.60 45.80Q17.05 45.80 18 45.77Q18.95 45.75 19.90 45.70Q20.85 45.65 21.25 45.55L21.25 42.70ZM48.20 50.45Q47.35 47.75 46.48 44.70Q45.60 41.65 44.75 38.65Q43.90 35.65 43.20 33.05Q42.50 30.45 42 28.55Q41.50 26.65 41.30 25.85L41.10 25.90Q41.25 26.80 41.35 28.27Q41.45 29.75 41.50 31.38Q41.55 33 41.55 34.35L41.55 52.05L33.90 52.05L33.90 20.40L47.30 20.40Q48 23.05 48.78 25.97Q49.55 28.90 50.33 31.77Q51.10 34.65 51.70 37.23Q52.30 39.80 52.55 41.70L52.65 41.70Q52.90 39.80 53.48 37.25Q54.05 34.70 54.80 31.80Q55.55 28.90 56.35 25.97Q57.15 23.05 57.80 20.40L71 20.40L71 52.05L63.45 52.05L63.45 34.35Q63.45 33 63.50 31.38Q63.55 29.75 63.68 28.27Q63.80 26.80 63.90 25.90L63.70 25.85Q63.50 26.65 63 28.55Q62.50 30.45 61.78 33.08Q61.05 35.70 60.20 38.70Q59.35 41.70 58.48 44.73Q57.60 47.75 56.80 50.45L48.20 50.45Z"/></g></g></svg>